<mxfile host="65bd71144e">
    <diagram id="9u2nJI20pNOK_jpKAYls" name="ページ1">
        <mxGraphModel dx="1818" dy="651" grid="1" gridSize="10" guides="1" tooltips="1" connect="1" arrows="1" fold="1" page="1" pageScale="1" pageWidth="827" pageHeight="1169" background="#ffffff" math="0" shadow="0">
            <root>
                <mxCell id="0"/>
                <mxCell id="1" parent="0"/>
                <mxCell id="23" style="edgeStyle=none;html=1;entryX=0;entryY=0.5;entryDx=0;entryDy=0;" edge="1" parent="1" source="4" target="16">
                    <mxGeometry relative="1" as="geometry"/>
                </mxCell>
                <mxCell id="4" value="Bot-container" style="swimlane;" vertex="1" parent="1">
                    <mxGeometry x="180" y="140" width="120" height="160" as="geometry"/>
                </mxCell>
                <mxCell id="6" value="DiscordBot起動" style="image;sketch=0;aspect=fixed;html=1;points=[];align=center;fontSize=12;image=img/lib/mscae/Docker.svg;" vertex="1" parent="4">
                    <mxGeometry x="35" y="74" width="50" height="41" as="geometry"/>
                </mxCell>
                <mxCell id="9" value="" style="shape=image;verticalLabelPosition=bottom;labelBackgroundColor=default;verticalAlign=top;aspect=fixed;imageAspect=0;image=data:image/png,iVBORw0KGgoAAAANSUhEUgAAATYAAACjCAMAAAA3vsLfAAAAw1BMVEX///9Lrd1LrdtJr9z//v////1NrN39//9Ir9tNrdxmtddyu96XyeL4/v9CrNtKsdzC5vWWz+uGvtxAqdb0//9Hqt1OqtWU0OZBqdTc9fup3O49qdrq+/6NzedIsNn+//rD3ul0vtxbr9XW6/Xo+/7M7PWg2emz3u3J5/XT8vpit9zl9v1iu92CyOpXud+h1et+w97F7/qRw9xNqs/c6vCjzeK01eep1eFzuNbH5OuMx91uw+PG5PYzrtev4O/U8PuBvdbeLQ6pAAASV0lEQVR4nO1dC1fbuBK2JUuWE6ykKDYOzgMMbErCbiivhe7t4///qjsjO0ASObYTKOEcfT1nl6b2RB6P5q3BcSwsLCwsLCwsLCwsLCwsLCwsLCwsLCwsLCwsLCwsLCwsLCwsLCwsLCzeDr7vMN9njDne64/h78zx8T9whb8daaQL1BH6mwq6QNbz2K7r/mAw5sFz4FOEg/5F93h+hJhPvvYH+jl93/O25BvcyfwV/jDkpv7Szw1f82xw8df1NIjSNI0QKYJMh5N+Li3bkc7ZDW/j6+T46MtwOPzyBV9HD1n52aUNnuty3h7JKKIj4ZIgIAAacO4SIaSazvvA1+2kjfmz7tHpVCgl0yiVOVI1uhpOBm/8DH8MzNfqK7w8ylJJqRCUEgLMcjkggh/w75RKmVx1e6iYPNhZ1ewDbebrTe/PJn+PklQKClSAPILiT5S4UiXT4z4SBVkHnfqJRE/vzfPjf0AKSI7ADcgruG7+KXFV9rOHhsF3xlVUYUOjtu/9mk9TCfxy3WWiC9qBVKqNr0Oruk8E4EB/SFLYicCgTQjg4VU28XPLWgW84nw+lfgyQF55CVHgnBApPe45azZ8zwFMEzLgUeTSUsYFAAlajrvqtF9PLtjlcJTKCIUMbzeTRcZx4KvqTHr+Z2CatmKw0N6Rgk0E6qajNc4mwEUjQYWah7ABfcfIOy/XlY5/8V8iA6KJCoKazEhRq00iOpSq1q9iUX+aEw0BjpjjTzKFKr8JRPJ4XjjARqLgbrB+W0XxqBFZmh70mDPed66hn37+dwqiQCqU2iqojM+ccYk1BTuLEiyAEVEzqkK2+nD7fm9VkBb/50jr64bSBspIJF3HrIpgi/rfrn5wuIaaTOcGaQPGqYmzbQD3B4AuFWPhFxUR4TbkGfLZpW46cdDBWHlGH2StN/zBA1Bl3BXNyCLl9Ah3/54aB1A+nnPeVpSX+QUVAB8YBMNZcUS0h9ufKsH1JW4z4hz+RCS5Bnuzp2xD/dHP0oYq7TUIkaq76ohguH4RS7E9WYA67dUJQj4CIG0XRBLX7EzV5Jtw+2xZEcEWnSi6E9kAeH7a20cnBLaSx7piBMqkuV57BkSqIhu8ej4fZW2edjA2254q4ZKoU/SM9ox1Oqv2TW3PsBwYl8vrF5MAcuc5c0WaWmUT79R3JLhf+g0Tg9/UKNphJ+ndBBDp5FkkMDSYp41dQBNlTsBMsz1zRGA5lxBdloeftQHqLX5Ol3mecyxjN2jm4prAwX1JL0uCkD/EopV3hn9j5zGVkajzfCUB+PMDuqNr7d8iVacrRRTQCoJ1yAacklbvA6VtwTZWKFgPE4e9K1rhUJEgX31UwVrQQ/IuZxtzLhNRue/BTeT1XEV5b84U7A5QUhXADVlUiQr24SfXcvMG5S7JxUJgwLOZDYF8RAsKNvScSlrJNpLn2mkFWSBMZP99uFb3bWDhxEce4i3e2DlOKmMDUOxSSuBDhQJEFqgLfBnjXhu83Gq2USQsRCXbwNycvgfPMEcf1kIPES7uG/8CLzfe4CWgLUxV3GoDMpXKYINLgf8iHrHa6RwpQeMNTgWmC2SaxhmQnXYk5sk3eyFBcvbGLPNCD3bF8Yh2qoCZQMlHUt4U0SPrTWlQkmrlAXc7gia3NyeD3IqxwcnBbcJNqlCTiAjho/TOD9EPLFP0PAIhE1Sq7ODkbrGKp4NMgdRxcIPMkg+79NRZq63uBJ146Kqo2oXQzqMg4naWf7/nDGXpxRhL0rR1Ei4SrJ7e3/97hNB8vcwQAZeQI9GPO2AvLbcyIDhcptn9ma+dO62Qsf5/9zslvEzLcSJEMntbtmHSpx/TkXY5K0FGbvqw6EO4UOW85q5UrROmTY1+O2NMDcHKz67U+tUBqL5Exe1/70BfbHgZLmizJH8X47wfQietcDlnbdjZZXwLgvSgtv6uBXiywZWSZFGnLQeW1KUrW76Xv7feFE2ZAbhSGcX/4jJ1Lwhe7enMN5YN/kpQcJ93N0pWlN4+3p+FuBjnIil9gyjA2QnWpXWOL1fK2k5hW8gE+MaN7xo+duPetl0AZrb57O7moD7+1QYBszFzRdc1kN7JRLjycVb2mpynRLgCLwqwbCLTuIUs07wFR/CfMhEWQUDT+3BBZR1nmdSBv3FR0dPbSpvfcM/nnS+MnY/Qoq29WUTHTW7CkvKn548hBKAclNSoE5EkuzmZaV8wJ+scq8BdiBt5/r8WS0pvnzaWB2dZblGX787X5H5v9JSVXPCaxLle3kWEeupIEsMe1WJBFeo/8wPqLT5JBGipID58uEM9xcZF4DF2BmgvgjXCet/TbFZ0MZUsjvWRRet7XGvP2zcNsAqtWhN+ruDhIc/BZSsxeCR+cEobY8Avw1Saih8fUJlh8dx/VoDM+QvtgXmb0lavaO8oexSPXSTrW7S4W5VojZps8nSOTLfs5c1Szz9u4FbBWd8v1IrPjqSRabBokiDXSjVJ/vkgXHCxCHFzuzEo6YEALSizGTaCbBAZXN1RJErepi5X7MI4X7+0JrdgF5HHXq2ZDYQ51o6Ckfx3a1vPjpX5ZUSkA55XjapAb1SSRufyYLs1FSvzt2vV9DH8ernxWI6MchEQ+Xv7rGAIltXIN0LTE9wo1SQmqXmbEtnebk0FfCc8ajfHFPHwTGSKrRgmuBkmG7d0kboqMNIlAiK6WlT9ELwQ07qIzHYxCSAIx4pW+rYrALtHOp3kRFMAbXSphBQmoFQsfx/DLo4aXUUe/PkP3TkTVTceeLXqKGBthIkEeIhxWH17KbavmETubZhT8J2jH9jeY/DIMWW29Bi6E9mp4aFjE4kCsTC6+fKhZreax2bKFGWQYEdTet6sK2ABeF3yMH8+j/UyaUxlgL06W7Y2uoW7362B/3W/HkngmsEQcn5bt2QH73RqWhfE82qX5JE/z1pb4vFuwYvLiESjtcfDJPWjs2LufBYeqeqAV0r1A3xgg5nBNGh6X9v0w04wZt8DmXzdgW27nHgY51ldh82l4HRtL1C0dytWFNyWrgKVXl3xpAHHfbC2vYCqiAe12/F9p5ua1AchuWb+MIDyahOy3nQcCBok4eohDb/IZVZx7fnp1vmptUNNrgF3f6WGxcEXyIfq298RzOmZ676BDK5Xk6hj56fcrfbMAxKd1G5fhi/vp0YymCj8SDCnX5afhLBqpZIL1kNs2b/1/Ly0geuA7f1/nm2LqGu12OfknY3F2bBumQBhTvu1SYAff6YR31HcIO5w6u5S8HcGgbEZ7j036cbe6kV9FCyCVkW8KPDyHC6IRW/5eo+FUxERvriCL8Nd/sz8z4SDHa0Nz2fg/WHJYZk4hGfyZDueVANEpTf/UoJjP9cwmO0vaZpvrXY7sK7sbO6zr4H0qYH1Z6yvzGTekW2+Myz1seJeESL5ban9idVtQOT1Mrlx6FyBTdtpi4KYJLMmbAMHZJHYXCLj7uTuboQ/7qfc1CeL62gtcpTh1Fwh4u7NEjVv7FykENXsaBKCOKzPNgy5zc0mPNkpuNr4nf5/aZlX5T4uqgMQWpkd1tWUlu/8F1X5a5UIZKMYnDl/m1dHlhXvG8IHvRCX4r6IMLxepyQFK5d1N3gqKSVBWZq6Lkgztvkj16BA3MDdKXG0Gb7fK+3/8MdFK+egpMuRr7HtyK3sa6lE0EhMIEgwlK/16g7fklFLAM6UqBGMCYtalDcoUfJcLus2f1Cj3aoaXM2ayMmRNC6PyAZuzHuA9TpmZkiynHdmc8EJN6AZ24S6aLC63qiEzE4JkLcA6DYz5LLfFk470Vv0ejdx79k3VZI1kL2P7RZn/rSkjkCXbfygxO9sBtERDbQSrG1kJpN98NEE5kxL2vCoOnl9YdiKRnI1oNCec7MjGk2qAN/SDjcTOXiv/t2aQM/IqD0C6p6+Lraw2f2hCb8P2w1MBY1o8lSrqY/pxhsDZWyUTc4++CQMtn+Yi8BU/AhfPZ5vLADgR/NR/aNUgduRj743rtZMPq7M/EKIzMI3bQtsDuZMzNIGHn00f93cgt0Pq/BYyC5UWceBAdwNuPpVZ4d5rFvCNdAN93UGQLwnmHOhjIsLokDeDl4Wh5m65V4STGJ64/MROiZ12QaME7xdq3LVL+u2p0TdffRkEN85L+0+JelQt0zqoJ+tTs3CkU7hODyVgqwfE+Xc3GkE5kcQPI/FNk1+wl6g83+iEhJctD9a2Bzf6+lSpNk/Srs4T8FcnsM5C8wfJiQI1u/uFPXq1c919QpdG39T1Q2k8fzKJWs14Hw2iFBP78aO2mDOMCpjG4hGn41L5gt5/pj5R3mqf+1uTszTCYJcXkbnG4chMXY5kkTwtXJavklbH38wEnbaxFjlQERCZudlHUfAtt5Qlqg1js2rZQD11jrf6IT8lJTTkmNda40pHwHUIgk8h3GPghMipzNnMcBNIz91oZ/5/BTd37W78NmEODyWrnluBfYcpa0ZnvotmsNfLwiEcPC3wqv4Whk74CCA9HEPTi9jk3wbtLqhQSWHIF19JJQt3YRs/DZKjXcg2zrxXT8lps6ZAnLUxRTNSkFRN3lOOgk1Nt3AWxQQvHy0q6tXCgyYJO6Gk4tUfR8s9QZ6uh/9/DqVcelNmBqedjbkNDtcXc+01L4oKhwR5FxcKRwLVzIvqiOB8pueSdgO2K82uN2QfyS8I/kcd+rrxV4OVZla08B2wkkSlIcP4PcKNbzEFbxQZb1uW+EAMtecj+JgabJw28GEbwl9BGVIN+aEREckpw/9RVq2dzmfKvTWhNlroa5UJyASvRHfEOWPsKtSXt1fLsj6590hSQUdUbdsRhDO7Hnagy1aoK82n/8neHRRJtP29fV1u6PSCOsiJonQfAyE+1t3eM3z8knJ8T7NUzdN4+n18Oho2M6knkm4Ke+5Xhf6SOCx5eJRzNAcEYLqA7gLRpRmegORDcBKemwwyj/ZRJYKGmP2SQ9zoxUXE9lqUC58f5RVOl7JEY8IHnfESZ6GYOo1OvFT0cJ+XOoRvtAlSJHnFbHKREo8++A82xIgUgBRMrbvFi5FQPJxnuhKoTovA4Fr0ntU8+ij9DLT6Z8lAC2dJtUpF/yK0jVQQeB97NHoZx/306hJGqNceChND4tAGxjXbZJUqiLdSR42nMf58/B1rwXZsQVLgwv5GC7CTX+MfTm7jIN6BYlSvFcTUfVUtGv56jTt1qASzMHiqBq4Nr1M0t3JajWhDvbH9dDAHkGv6AXZ7fkIjWf5gS6nODXZVzTYmSxSQK7hIZH92aQIz+nHLgk2nGyvZJnLAxqv9U91E8w27qjgSKDu/bcdK/A28MbOV4XtjlshT6MRmd2t9M77OIKME759YRo3OMFWXbaPbMOM9ySJms3DfYYWCSGzvs5qvCYLGmCe8O3O6ryQj0908Lx/bNM90N1kSx2kgyr5OGCLQQ8vZD3gW6UzvWl/AteyM3gdW/9KhveGD4qIYpqh8bPhWFj5OzQ/mM/mSgZuc/8mwGk3lMLr2DNDsAzwG3Ba6RZzKV0axfcOM7vwnudM9JyBxgpOiCAQ2hjsM9vQ7Z21ZEc/XqM5zCLCfVTiV2FS8zJrSDa/LnBV6+7Dq3sVYLrM/n2LobupnhRSYuq0rPSuq8N6A5J7fx+SuZWAJZ6A4ytIwHMD+TqafhXbF8BfbCLSVmW3O5Cd4JRybFzPBw6uBu3uC+m8vZ1Iien4TwIQmvD7jyACVyvKGbOpg5JQorKTGqoHLOHsJnkZGFpB1o3cKPl9pwfAfQboX2ngnLUTQXn1KGuQiOw+xIlYFU/HsITvnJ2qTp1h5QEVSfz9TMdn+2wMXpCXkpjztZ3o+bvGckAeFIBroHCOWF4S2ZwI0+Np4M/Fqcp1XJkp0Gk3HOo200v5JMKWd2ZpPpzdxNINRkKP20Feccwi4lBKjjPLhEyygzs9nqxGZqKYdQM/zQ6yRFI6ojopyXNGcR3UudgCAe/i9uZMD9j7HIK2BNyq4eRURRH+phtMh+dzUHGLERIp4NnZFjMlNNmvN7FKo7zMEEWY33Xzig4YAZUdPIXOeA9qetvB0+2Tg6f5Y4YT8iB2gqdyhUiSOGsf6HljTjE8sAFQ6uCe8OzhOouLc3TC5XoqQbKgi/2Hn8DpKMHiF/OFg7OT+4Ph4eHh9+/3DydnehAUazpZqaCpR1fl49002cN2q/V4/UJXJxU+g6e2AcWQfQN7MKm/lbr2nFx/lnR/6Tf1uZlmYWFhYWFhYWFhYWFhYWFhYWFhYWFhYWFhYWFhYWFhYWFhYWFhYWFhsQf4P5VASuuSvwGNAAAAAElFTkSuQmCC;" vertex="1" parent="4">
                    <mxGeometry x="32" y="47.71000000000001" width="50" height="26.29" as="geometry"/>
                </mxCell>
                <mxCell id="27" style="edgeStyle=none;html=1;entryX=0;entryY=0.5;entryDx=0;entryDy=0;" edge="1" parent="1" source="3" target="4">
                    <mxGeometry relative="1" as="geometry"/>
                </mxCell>
                <mxCell id="3" value="サーバー" style="shape=image;verticalLabelPosition=bottom;labelBackgroundColor=default;verticalAlign=top;aspect=fixed;imageAspect=0;image=data:image/png,iVBORw0KGgoAAAANSUhEUgAAAOEAAADhCAMAAAAJbSJIAAAA9lBMVEVWYvb///9OXfSRl/v///z9///8//tXYPZKX/OQlv7///3///tOXPVXY/f//f////n///X///BUYPFWYfpUZPRXYf37//dPXOtPWfNZZPpRWPZaXvdXY+77//3V3v9LV/b2+v/o6/ugpfjx9+91df7g4/y/xv1QXPy2vf3Q1PaFh/RqcP5kZ/tfcvVIVPqKkPrAwuS8ye+psf3u7/pTZu3K0fx2fvWFluz/+P/n7uufp/+nr/3Q0f+ts/eao/JRWOuvufPa2/BrdvHBxfd+kPD8/uTN2vXT3e2Ypufa1+1HUPtye+qltO9da/FydOu3xfdSZuNvhu8BwUKpAAAZoElEQVR4nOVdi1rbONq2Hduisi0pluzYiY3tQAgJ4ExJQik0hIFud5cO09n7v5lfCt0lA3ashJQE/vdpO22nifVa0neQvoOiVgMhqBNomaZpQVXlP5DEh34FHp4LdUuMhehQaiCKxL/xfdNAsQnRuWXplm9uEj4fAUYqhAgZpu+viSGC2CIWxubn3vjw9KK2SVxcHo57n2M8GxFc1xwSYqXZl9P+UdcOAlvTNPFzE5g9OwiC7lF/Ms5Si5A1McTZYf+YfzVwQ8cBQNkkAAjDkCmc5nH/MLNexBAbMV/spJ4dnCS5F22UVxGibp6cXGd1vlaxYZTPZjlDSBAk5m7teKfhhoqzaULP4IDQbbDjWodLCYThCgwRquu7gyjwbKowhW6a0DNQl4+qy4JgsIvrC0ROOUPidwaNHao0GHXcDe++IoSK69jMdRxtOujEq6zS8wnrhi3FVWik0NDdNKFnYA5VIsoUoFDbnZxLM0QYQ12HutnbmYZauGkaUnC0MNB6FhQD962nC/YpQwuilFtpe+1Ww1Gc7Zu5QjgKa7Tae1z0p0b8VIM8ZegbCJu4s29Th3+ObXrsUpiNlNr7HYyxiswKhpxg3fh4rLlMSNDtky9FAGKkzNWOPxp1gowKhkJ9/pZHCnABX6PepgcvBcqlKuXSPsp/MzB6qhnnGCLLNyDExlW+6SGvjPzK0HXd+Ju4mWNoQYOzrF9Nt89+kca07WPuV0GrkKFvGJjPYELfxtosghcGbU5CNfxChjMh0w5od/usbFlEttdsG3WM4kKGuhAyCTdhWpse6MrwRjRMhLjRi/chwh/frpB5RP7Rmheo83Oodo7fhopfjOi4UyJprL19bfucpOXhuPt7uJCh2Q7Ye2AI3GnbLGTYa1H2Nsy0xQCMtnpPGRILkXOl8VbcpcVwQNhQzglEZI4hl6/x6ZQpW3gcszw4DRZMfKQbcwxjVO+4fP7YG3EIF8LlngZlnTqaZ2haeMA9QvYu5tBxWUjtDxbE85IG705pqLwVd2kxuDPFJ3G666P5VUr62qYHtmbsDEg8v0o7De89iNE52I3O/Cr1a8FbOXWShMuC2ry2yO7D6D2YpI9gUXiUzTE8bNjgPQiZR3iKrR0+MMQGQeSk4dG36/cWIaKee2Jh1UQKMrCeJe9rEwpwzR5kRPVVBZo6Psy38nbpJaAKc/JrrJtQgQaK+x5Xku9LWzjAAV4/1Q1LsQz983Hk2Ft4u/QSuCF1ouOMyxjFsMg42PR4fhGCsR5DJdat0/fKMJlAyFcptPrvluEAqliBqnn03qzu/8I+ipFg+Ln7vgy2OXifOUPL6tlrP39yXeAtJ5uZuARkjgPWqbRA0INcH1q3wToZAmHXe4CB5Y4LGKDA4b5rNFrnWIIvkNs0+nWwzvcWMZeGbpLYO0t9jE2TrusA6nXXOBYQHOhQUa3TNa5Sx+naQSP6Xjv9utxYji6vP51F06lYqWsbDbBPLV2B+EJbE0MH2Eke9Se9Tgr/YVwnS3w0/x3X4V5nPDlT8iRYcoWXAmgX2FJUs7a6sgCUgtBlLhDvK7H3a7cdXYQRz0KJb4AWyby70AWN2syVEzdGeuf24iSwA4+6Lf7NmrChVzUowU5NN17E0HOjKHJb3LfUEqV/2hn6c/da8DZg9ClDV+DJ30UgCncfT+GRZQ6z075jN0aOBxwWRSu7PZyh9TKGgDHNY4y/8NrtEEOiqnguvgyfMfr0srWIIXC0wdytdB1D/pOk4wsWTFnk2SK8a8XxvZhhBGgr6J60e2ldR0gnKjLmLn2sXuI+SGnnfyj6Fm8n6M3dhhkilMKECNfT3fZ+orW46lmd4c9VuqqkYd18+p/eEBKd0zMNpOP5OE8rvfkZEuAoAABbxC8nAjaHxjfwT8Jg5zuam3qCoY4NqBvc69GHva+NvPva+9CLohYF7g5Nmv2DtK6WAdZvE9btJnlis5Ozfu3i4vJ0Mjk9vby6qH0Y9M/uw2aSBNrOjtL5R3k4M0lvB0HCpY1HPRYtt15XZRjZ/FFdph1fZKmJ9dKxmcS85cQmH79l2XAo4gGhDgWwBdF5Ohxm2bcf7cHN4J91lJa/J4zT7F/HXcZGzFsyGHtlht4O6zbOrlNIRNpDOUOEiE84Kb7wMCExh4lUhJDJf2MSkd/AKVs+5grmabjdI2bpLOrwcD/wmLKksbvyKmVMcW9NjAgy8IKkDkwgsvgAMRYTzWeQaxJdN03OfAY+PbNfEf9P+bf4GBv8X9XT06nG2HKHuqsypFG38RHqlhGLOSgdGhc1uq5ji0sgkcnDJQefRCjCXHVoGCL+jDvg/M/8/y1aCUgsbV/n7+jH1HulfUid6YFMKse6UZ8ErzSHUTLY20Rulx5/X9JXX5Uha2Z4Ewwt3HklhsFER7h6QGsHPoeXzddgCG4+Yz2uHtDaYRI9PVnK/FqBYQRaLP/d8hfIvl8I5Fv/zp2oJa32V2DoUpZ/VUUu1QYIEsQ9l6+J50qrjBUYtlh4nGGuoTehLfjKwTg7VuRVxir7kDWvua1lqIsU/a8D99D0SeOZW71OhqPuUYzFq9zEPjT4YyHcO6LSKmOVVTod608zNl4XvvXF/pWr1D6znmXdvDJDZJ5JK8VVGO7iZ1k3r4sY4t4vZGh/4ntwU+UGHiBcrU/2L2OYZ4S7TBtliGODZLIZBcsxpK6382mj5B7xadp1Ze5almPIlFHY2YwafIaOMwIy5xnLMQTOTm2zC/QRuLYTyiT2LMlQmWZbMoUqzKbO+hmybo1swmcqQkxqUuln8gzF4XS009mwoniEoXb+e5i+vjl0goGx4MzvdeGj+GtT4o5xOYb5Lll4dPiasHS8m0skhyzB0HG0fozMbVmlKlbTvq1U3ocvtQ+TH5gsKJHyuiAmRh8TpeS2bgWGrMWAuy3sfsLAbrWzL80QuDRob8se/B8ubVB1YiPN0FEA62ya0DN0orCqpoz8PgTB121R9o8wa5VRKfIMR3fjrVukKhzfjdY1h2znyC+/6t0UsH9UNTPSDF3vSt9ChvpVd237sPm7TGG0VwbCnaTCDZZm6H038GbPn4rAx/S94kxKmuHdH6q+LUb3I7gN+UfFgY0MQ9dhjIEO2RqL9BG6SjKguItiwmQYOq4DvLN0a7yKOUDTSr97XCWWb0apOVSUMJlA1dw+UYN9FU6ErClX+7L7MOkQNd6+SYQQkU7igvBlDAFgDceoQ3lRKgJkxA+43DtZ+gMqNFBdZdHxS+fQjfK2xOOQaUJxrYhx5/bT2f39fv9wF2NiiWihBZeNUASB+Zhgfdi7PDthxzdX49SCSBfBbzLSrZ1EWvllmwxDGoGujE1qQSNFBMXfPoymgWczJbDBoBcjUjk1EFrIHJ7eN6bUjhQaBH8eirqpSIUyW3/saQtOv+UYetFQgiFGBjZJ9jXvep5HGf/BHC1oD7GqLx6oxYW+f+3eAY+CUdd2WciS/d3C4nlFGN57C+qxSGkLYA+kTrpFFa2DVndnFDVcF0TRSDw4P+Nupb6onjHk9u7n/p0SOW6ktKIoUryQdac/RDUrmcdaX23vZfsw8qanMk+CyDJ+y11XaTFHRPBTGircVthxzhdtQxGwqKL96aw4MXOZEgKHAS2K7n4zrGfF8wqfezpdEHMqpQ/ZXSbzMn1U/1FkQmn3Q2KVW3wxqmcnRbeB+Q8iF9GS3TkvkzTAcVKZd4n0rFV4GzQd+AuGyuXvh0bRx6JI8oQ9PV5wViMlaey+IfMukdlvFu545+4Alx/TEfzxrnAKWNCXOp21jP6CnCapOQwmUIYhGd/9VXi2R91oWP4FenpffNYCRvmtjNOtc8NtwehlNH4wlrK6rb5dXDqED3WyQOMf5sUV/lzKbmQOv6A1br5sH+60hpXF64V27iWsVTgZjuvdlCpUmN6USEK2w/JbCxlVrxfpwwVesBTD/bi6xQI3sSbNyCncD0yhjV4pw92GKAhUNDYlyr/OlEnVs9MFWcwyDO1B9RRCy4IndlRsWzDqNk9LGZ4mrDjlp6VEXc3gBk+FyW8gfVAeeyLDMLh8Xrb22Th1FXVDp1hkMOB630s/euYpZVFqDNxl3ByqMN1MhC/Lc+2lGB7UK+1DS0XDPPJaxUN1Hfuk9KMlknSW+BzdfTNg1aWsieoHL2LodLNK58AwsNXLRfp24UP4NrP1AstNfC0KgOsWKhn+92F+SyqP+DCGWVe8pWKdIzGHrJoh5P7/uJQh34i0aZUxTLigKbFJOMMvOjYqlCJ3sbLj0tFLMARnKbIqGaJFDF3qJUVzODsJSDxaMvWO4+Q9aFXGmOkoPSu9oKli6DiKXTMXtY74yXDRHDou1djDjD1nqHM3pIQhf3regbpZZdjoyK/ZZQcZEgyDNndQq2Qp34e75QyV0L0pYQjVe+6gF7vo3JXKhxBW2TVc0NfbQdl9dyVDhXKzGVkVr1GYHUQkNZdEmtHGRek7qpUFbXMXcwQkzEXdQvggCUGJyVi1D93w7ouOqq6dZtNz1lWKz0tAZCc/Sof6IykpMea5Srcvw5CP74s4NF2NoRLmHXFoV/EQ8ct1XpbBSqPjYelnh8clGftexO4OJRiiGMJO7ijFPQ4qGLr8U8mQe2AVD5mNI7t3i6uSMNqolfuHPl+mhYZCqLhRVk2QM7TgMBHnuiswFL0fElHFvOJVzuYQD7TivDLWyndLT9sMvJsXM4yANpCJb4GiOnkiUsVXYQgYYxIPmQEPG3zriLOkuS/wPC7idvoLfHzofwr46vbAXM0Wj0uNEHQb8uG6DnOL31PlKmXKvexT6vFpPnpyhaDxlRZ5oAMXpDHjzA2jyA3/NgXc42JJ25SNUYL3fEOtwpBT1M5kGZrIOEtCm85L7TByPZpfE1Su1Iw6vk0odefriPOFoIRdbkxJMzzbWc0uDRng3qHkUxDWsz8bf69r50YtL7gy6qj81BsjEk+mf69KycfKGjcZLu9v9JThQCuzjBYzpK4S1GQZEh37w9E0nDcRQ9dLPpncASpXN7pqqv+4mtJ5TRPScOpmWP5iHdY0WlxMvnKVsu5y0WzphbjOUyJlVqyDAjs6lDkRJLeNrqjSonget4uop+S18hILRWjnJU2NqiVN83IphtAYn0w1ANzRiMvUKOh3fJmTSFjPvjamIGSjEeN6ULu/rVJQT3CZlNToqZpDwJoLDgILYCArHveju7u7PE9OarvxooZvjzD5Rv29ds8/E+S5e/YjtapOZ56g9Mi0iiF1AhnD6RE+IhjX97Lx7cGXjoEJ1InMUGGdIOSn2fhwct1LfYzxkgHlh82SxlSVDJUlGSJo+HywWIeGbukYqYYhc8tJjDgmOjeidf6CICK+IdVf9BHXTRauIksVBzQPti9AoQAH3dZqslQJ3zlD8O4Zvv85/H+wD1uOvZws3RQOg5LovbXrw01hZYbcpim9NdoqTJrFN3vVkoY1r94Ew3bZNXCV5e1yR3vTg5dCOylpkFN1TsNoS8Y/RNg3DGjp1XfFSwCpophY3ZQJqoFfV/UPGbWlDmVFyRGszwK41gYz1jHWEVJl3K++VpIBVSlpALiRCtqDpC6iKNfJUEQnIsJnUsY5uSkTJNXawpU5azNVku7GpC4VDyqLc0jwcJzKRdAzpSQ+sUrSeCwq79r9CAPpt0n/gPuGL2Q1Dx+nk/sgkwpug8BldJV7C0ck/4qKhhWneuf19B4ogXOaWSo2YxUSKIolLunjifBi7mDyLzAwhPpuLQmYNuDu8OJPkRSTYf6CG9LkdwtV1fXC8eUdo063GV192yMoNjhHsYuWi+7Hs3joWOw+Ev/o25oStWjegxWv1zon5rekLCNYgqH2PSNWxUNIPL5PQhY5XnJ3fLpbJ5wf4ZtyOWOBz5Xpn6sQ+uNaK9e49Kcs+DOrWkAEk0wImpVuSMUqdYL7b1WxidjHw3Yj8Jgb0XBH27/spIZvLq0eoWkaMP29va/tUBq1IqqB67ReNYdGPI66gt7KsRhglFedKBrkvI57/TtbhIgoIEqS75f/TqXi0OcJEnX47/ZNnruu5ig0svMPHcI3ZIW2SC9yLSpNKpFhKA6gnY4pUkoW1pvFeueTkrjcxqcRo8md3b/ufTZmRWb5MC3djONZvLcuypZyXa7rBoQWFvVLIcIkzsaTm+BO47PHl0KkJNFVtsCCgKaBoM/pf+PyaEEDeKlIdnGJwK6GOjF901h0iVQ3hu37pkvFuX44UprN7n3/9CNfsdyie8gu0HULC0bcVEHiF/5bQow03T2snR11824YifLs1NGaJ398NskC/VrXRflaktZs112UCiwX583H6+RHX/hLQwviv0wxwXDv4KYxpQ/XJGzkdfO7HPz5aXLb+5alsTGbah2KQ0O+ttNh59u3SXuwH0ynAXBGzAkB0CJvmvfHKUTnyCp/2rmFznF8SJtgcc0Budw15oDuCDQ/DUl9wSqNYwNiAkncO2nRn2nkEfdO+BuykyRpKvf3Z2f9/uCDwKB/drMfua38zgtsRWm1KOD/lhuJLh11BxlXGUSHRlx+KWdBriPOkmgWfbug6Z8MQ09xHb50HCePDg1SfhSNRFVgg29W8h+NRpQxEQVAPb4tgTL7g+d5olB5IGDbmsa3nOIwzgpQvvOcWXsAEHVHzT8gtgyu9a0FwbOYpFdAUyjdAWIOXsRwDndHY25z8B3gw5LIVsu05OtwFcFRgJPvxQgXCmLdmnlqyCLp4TT/BTWG/tKCr//k+42Lh5KEFsRNNelaamUck4mPij0KTo1wNUviL/uBp8h0a1mOYeRR1g1qGZmZZIXrlb/83otbRzlOVj8vFDL+zEXzd8/yKGIL1uYjlmPYarEoog1Q+6df14sZipqGL2MoRKNdw8UeBUE6ib/1c24fUkplykMux9BlMwFp2+A0I8UXfKZ1ELyoE6YjKLLmbr3wDp+b9Nzl0EQ7YwdIdS5etRa01qx1IPdzjPjRpsKoHpv6sMwVXQZUudlDxOA2weybZ0XcucmqEn98li9Z1Hnl7g9N8LUTE64AudJ6WK+YGxm6X1uQ3SGNkRdMhC/107KNTXGpqMN0fGbbzuvUZB/ZbJQE/dvUEsbhw5s2RCvz2+k6ul4DprQ6GP+33YnFzT3u5U6OcoWrzb+W+6pVa7LTFnAotx7/9dlQ0cOWMSydDJkIgVruuwrgRVH3zKhzY/9BvhA93f3AApsxbvm8Vm+EaHZeDBL6tQfrP8Uoiq8CoBSflyyFiLos+Y37ZA9WBR5ef+8GCgAt7lSB5XqWvbwbktvNo4tOqnJbmpDxS6yZp0NTvmHi840+HP+nkXib66Tzl+t1g+736wwhq3O/zh6D7CxFaK9Xu7c1EK6hV9Cq4+h6jLGRkgffT/+4X7JDymJ407M/LsJEY0y0vd1cvyfuHDOn5Tqe1shBVcGf5camcFdE45uvO4pWb1X8yHDVsbkhnd0YgAhwQ3G5doAV4KtDBLlxB4t6YNWG2g+rdI2987YOonceVKC+zv6H24Wf/Q/1w/faLFcJZz0sIb5da5fObQKd9SG1cM9+X23VH/HQS9ZEn1e2GbYe9DMyOcN33NN530SYM9TfbV/u5qwvN/eg321v9WBiQUuBpvXl3TL8QmJVIYhkx9x7DtdpOG8e3KB0Ijbk7BRsWGnf05R1dRneEoTAAV4/haql6Ca2DnNldQN+O8GdLiU/tKCJFNWHJEskCpy/MTiKG2RE5QyRqWL9xPVKEnLfKiLquSeYGKb6EBN00OgWx769WVDWbRzOuD0wzI6Z+87m0I2OszmGpBYsuEp9i3BZUPPnGOJOsPPO3OCdoKPPMYTm4J0dZbjaf/NffzIkuw0AXHfJm4/thCg9Beh0159naEJ90BVK8l3AZYDaA2zhOYYxqu+KVPqSXMy3BcaUkLLd+s8eeMrPyzFkTqbsfVg2zFGcYGIgPM8Q64icK43Qfg9nUo4WNrSUqD/DRufinHtNuoZL6s3DjWjQe6Q1x9BsT98FQ8CCtlnIEO/tF1dgeWOg2v4eLGYIO8fvQV+w4858/O4cQwtZH+82Pbw1IP+IURlDrP6WKLS4ouibQDfywuQ3o4whPMd1ox1QqcZ724lIC0U1FTxfMOZvc6hi37hKpELGthN8BtsGxobhFzLE0EDIql9N365hE07b/iyMHBcyRJaIHsXG1RrDRl4ZyVVs8Yny56Pgn+ZuQW7O/ZZHIjXPccHbWK/CXaKAhlEuhMzT8OVn2WkI19WPx5oo3fRWlCMQldeYqx1/VOvPu2o/ZWjydYpxZz8IRajnG+HoiHj7YL+DnwiZQobWrKkG3Gu3XMd5I6dTDp/ERtDegwilxrN0pKcMz7m4EZkFVk+Zhm/ETHVAGGg9S8TaQv9Zqk15lmg6cbuhWOM0UrbxZmp2u0RdV5jabFJe+6ycIfE7g4YmMjYol6rb51aJzSdu0OhOY9CJy7P4yhlCVDd3B0HAui8Jnvt1oC5TqB0Gjf6uyJBYgSESgc3mbu3YbbjhFh7giPq9jZ2ototFu55VGBIjNrjqqGeHJ0m+oNXJphB5eXJymPkYcSNlQSNfmXx0nB32j4MgAAw4YWV7018LAEIHuCAI7OP+YSaTIC/DkBCcZuNJ/6hp82/WBOxN4OHJ/FV7R/3TL8MUEpnymDIMRcoa4faC+bk3Pry8qNU+fKh9eH2Ix9YuLg/Hvc8mHw3RsVQ2tQxD3zd/tprAlm755gzxq2P2WB/rFt95qmkiZPoytfmk5hBBi/Bv5/TgwvZNrwAkaumLsUBiQamWUP8HD2iBjQiZYIIAAAAASUVORK5CYII=;" vertex="1" parent="1">
                    <mxGeometry x="-130" y="260" width="90" height="90" as="geometry"/>
                </mxCell>
                <mxCell id="24" style="edgeStyle=none;html=1;" edge="1" parent="1" source="13">
                    <mxGeometry relative="1" as="geometry">
                        <mxPoint x="380" y="330.0000000000002" as="targetPoint"/>
                    </mxGeometry>
                </mxCell>
                <mxCell id="30" style="edgeStyle=none;html=1;entryX=1;entryY=0.5;entryDx=0;entryDy=0;" edge="1" parent="1" source="13" target="3">
                    <mxGeometry relative="1" as="geometry"/>
                </mxCell>
                <mxCell id="13" value="separate-container" style="swimlane;" vertex="1" parent="1">
                    <mxGeometry x="180" y="330" width="120" height="160" as="geometry"/>
                </mxCell>
                <mxCell id="14" value="品詞分解関数" style="image;sketch=0;aspect=fixed;html=1;points=[];align=center;fontSize=12;image=img/lib/mscae/Docker.svg;" vertex="1" parent="13">
                    <mxGeometry x="35" y="74" width="50" height="41" as="geometry"/>
                </mxCell>
                <mxCell id="8" value="" style="shape=image;verticalLabelPosition=bottom;labelBackgroundColor=default;verticalAlign=top;aspect=fixed;imageAspect=0;image=data:image/jpeg,/9j/4AAQSkZJRgABAQAAAQABAAD/2wCEAAkGBw4NEA0NDQ4QDQ8OEBIODg0QEBAQDQ8PFhIWFhgRExUYHSggGBonHhYXITEhJSkrNS4uFyA/OD8tNyktOisBCgoKDg0OGBAQGismHiUuLS0vLSsvLS0tLysvKystKy0tKy0rLS0rLS0tKyswLSstKy0rLSstLS0tLS0tLS8tLf/AABEIAOEA4QMBEQACEQEDEQH/xAAcAAEAAgMBAQEAAAAAAAAAAAAAAQIEBQYHAwj/xABGEAACAQIBBgkHCgQGAwAAAAAAAQIDEQQFEiExUXEGMkFSYYGRobEHExQVIpLRM0JTVGJyo8HS4SOCk7IWNHOzwtMXJGP/xAAbAQEBAAMBAQEAAAAAAAAAAAAAAQIEBQMGB//EADQRAQABAgIGCAYCAwEBAAAAAAABAgMEERIUITFRYQUTQYGRobHhFTIzUnHwNNEiQsFTI//aAAwDAQACEQMRAD8A9xAAAAAAAAAAAAAAAAAAAAAAAAAAAAAAAAAAAAAAAAAAAAY2NyhQw6vXqwpLkzpJN7lrZlTRVVuhjVXTTvlocXw6wMOJ5yt9yGau2djYpwlyd+xr1Yu3G7a1dfyifR4S/TOrbuUfzPSMFxqec43hSwqnlCxXzaFCO/Pl4NGcYOjtmWE4yvsiHwflBx3Mw39Or/2F1S3z/e5Nbucv3vF5Qsdy08M/5Kqf941O3xn97jXLnL9733p+UeuuPhqUvuznDxuYzg6eyWUYyrgzaHlJpP5XC1I/cnGfiomE4OeyWcYyO2G7ybwyyfiGoqt5qT1RrLzfVncXvPGrD3Kex7U4i3V2t+nfSjwe6QAAAAAAAAAAAAAAAAAAAAcVwt4XSpTlhsI0pR9mrWtfNlzYLVdcrN2xhomNKpo4jEzTOjQ4KtVlUk5zlKcpaZTk3KT3tm/EREZQ0ZmZnOXzbCKsCrYVVsCrYFWyCGwqrA3vBzhZicA4xu62Hv7VCT4q203819Go8btimv8AL2tX6qPw9cyZlCli6UK9CWdCa0PU0+WMlyNbDmV0zTOUunRVFUZwyjFkAAAAAAAAAAAAAAAAAGFlrFvD4fEVlxqdOTjsz7ez32M7dOlXEMLlWjRMvGZSbu27t6W3rb2s7Tiug4J8Gnj3KpUk4UKbzW42zpz15qb1aNb6ezWv3+r2RvbFix1m2dzsanArJ8o5qpSg+fGpPPXTpbXcacYq5nvbs4W3llk894SZEngK3mpPPhJZ1Kpa2dHlT6Vy9W037V2LlObQu2pt1ZNQ2eryVbAq2QVbCqsCrYFWwOt8m+Wnh8SsNJ/wsU82z1RrJezJb+L1rYa2Jt6VOl2w2cNc0atHsl60c10gAAAAAAAAAAAAAAAAA0PDmVsBiOnza/Eie+G+rDXxX0p/e15O2dVynqXk+qRlgaajbOhOpGe3Oc3JX/lcTmYqJ6yXUwkx1cOkNZsuE8qVSObhIaM/OnLpULJPvt2G7g4nOZaWMmMqYeetm+0FWyCrYVVgQ2BVsCrAvhKzp1KVSOunUhNb4yTXgYzGcTDKmcpiX6FOM7IAAAAAAAAAAAAAAAAAc/w8/wAhX30/92JsYX6sfvY18V9Kf3teUNnUcps8gZerYCbnStOE7KpSlfNlbU78j6Tyu2qbkZS9rV2q3OcOpq+UaGb7GFln21SqLMT3pXfYjVjBznvbU4yMtkOJytlKrjKsq9eV5y0JLRGMVqjFci+JuUURRGUNOuua5zlgtmTBVsKhgVYFWwKsCrZFIvSt68QQ/RRxXaAAAAAAAAAAAAAAAAADn+Hn+QxG+n/uxNjC/Vj97GvivpT+9ryZs6jlobAq2BVsCrZBVsKq2BVsCrAhsiqtgRF6VvXiJIfow4rtAAAAAAAAAAAAAAKzmoq8mora2khlmZsd5Swy14iit9WHxMtCrhLHTp4wj1phvrFH+rD4l6urhKdZTxh8sRjcFVi4VauGqQdrwnOlKLs7q6bLFNcTnESk1UTGUzDD9HyRzMB7uHMtK9z82GjZ4R5Ho+SOZgPdw40r3PzXRs8I8kej5H5mT/dw40r3PzNGzwjyPR8j8zJ/u4caV7n5mjZ4R5I9GyNzMn+7hhpXufmaNnhHkwcu4fJSwuLdKGBVRUKjpuCw+fn5jtm203vsM7c3dOM89/NhcptaE5RG7k8lbOk5qGBVsiqtgVbAQemO9eIkh+jG0tL0HEmqKYzl2ss1fOx5y7UefX2/ujxhlozwPOx5y7UOvt/dHjBozwWUk9TT6zOmumrdMJMTCTJAAAAAAAHyxOIhRhKpVkoQgryk9CSLTTNU5QlVUUxnLz/LfDitUbhhF5mGrzjSdWS2pPRHve46FvCUxtr2udcxdU7KNjlMTiJ1XnVZyqS505OT7zbiIjc1Zmat74MIqwIYVVgVYFWQVYVVgVYENgVbIqrYFWwKtgTDXHevESsP0PjeJLq8T5jpD+PV3esO7a+eGrPmW6ALlGRQxko6Je0u9bjfw3SNy3OVe2nzeVdmJ3NlGSaTWlPUfQ0VxXTFVO6WpMZTlKTJAAAAAeW8McvPGVXThL/16TaglqqSWh1Ht6OjedTD2dCnOd8uViL2nVlG6HOs2Wuq2QVYFWFVbAq2BDZBVhVWBVsCrYENhVWyCrYFWwKgWp64714iVh+h8bxJdXifMdIfx6u71h3bXzw1Z803UEAiouTMZmTa2nMep6Vv2HX6KxOVXVTunbH57Xhfo2aTYneagAAAaThjlB4bCVZRdp1LUYPY5a37uc+o98PRpXIeGIr0LcvJjrOSq2QVbAhhVWwKtgVbIKsKqwKtgVbAhgVbIqrYFWwKgALU+NHevESsb36HxvEl1eKPmOkP49Xd6w7tr54ao+ZbqCKi5M1RcgmE81qS5Hcyt3Jt1xXHYTTnGTexd0muXSfZ01RVETDmTGSSgAA4Pym4rThaC2SqyXZGP/I38FTvqaGNq3UuFbN1oqsCGFVbAq2BVsgq2FVYENgVbAqwKtkVVsCrYFWAAAbXgrgHisbhKKV152M5/wCnB58u5W6zzu1aNEy9LVOlXEPcMoztFLa+5Hy3StzRsxTxn0/Yd2xGdWbW3Pnm2i5iqLkVW5MxBFbrATzqcejR2H1nR1zTw9PLZ4OfejKuWQbryAAHlvlArZ+Nmvo6dOn3Of8AzOphYytuXi5zuOaZsNZVhVWwKtgVbIKthUMCrYFWwKsCGyKo2BDYFWBAAAB675OuDEsFTlicRHNxFeKSg9dGlrzX9p6G9y6TnYm9pTlG6HRw9nRjOd8t5jK2fLRqWhfE+Ox2J667s3Rsj+3XtUaNLHuaL1RciouRUEEEVtMkS9ma2Sv2r9j6HoWvO3XTwn1j2aeKjbEs87LVAAHkHC+edjsW/tpdkIr8jr2Pp0uRiPqVNKz1eSGwKtgVbAq2RVWBVsD6YXC1a8syjSnVlzacZTa321EmqKd8rTTNWyIbenwMypJXWEkvvVKMX2OR5TiLfF6xh7nD0S+BGVfqn42H/WTWLfH1XV7nD0Q+A+Vfqn42H/WNYt8fU1e5w9FXwGyr9U/Gw/6xrFvj6mr3OHoh8BcrfVPxsP8ArGsW+Pqavc4eiP8AAuVvqn42H/WNYt8fU1e5w9D/AALlb6p+Nh/1jWLfH1NXucPRmYPyc5RqNecVKguVyqZzW5QTv2mM4qiNzOMLXO93HBvgRhcA1Wm/SK8dKqzSUKb2wjyb3dmpexM1RwhtWsPTROe+W4xmMv7MNXLLb0I+ax/SEVxNu1u7Z4/h0rVnLbUwbnHbCLmOaqkVFyZiCKEVsMjPTNdCfidvoSr/ACrjlH/Wrio2Q2h9C0gAB47wtjbHYtf/AEv2xT/M69j6dLkX/qVNO2eryVbAq2BVsiqsCrYHc8FOAjrRjiMdnQhL2oYdezOa2zeuK6Fp3GnexOWyjxblnDZ7a/B6BRp0MLBUqUI0orVThFJb7LxOTiMZbtz/AJ1bfGXRt2pyypjYh49ckX22OfPS1PZTL26ieKPT/s9/7E+Lx9nn7HUcz0/7Pf8AsPi8fZ5+x1HM9P8As9/7D4vH2efsdRzPWH2e/wDYfF4+zz9jqOaPWH2O/wDYnxePs8/Y1fmesfsd/wCw+Lx9nn7Lq/NWWUXyRS3u5519L1f60x3zn/Sxh47ZYtavKfGfVqRzr+Ku3vnnZw7HtTbpp3Pjc1noi5BBFRcmaoIIuRUXMVZ+RuNP7v5na6E+rX+P+tXF/LDbn0jRAAHk3D6lmY+s+fGnNe4o+MWdTDTnbhy8TGVyXONmw11WwKtkFWwqGB2Hk74PLFVHi60b0aEkoReqpW16dqjoe9rYzVxN3RjRjfLaw1rSnSndD0jGYnN9mOvlew+ax+N6v/50b+3l7uxat57Za84MzntltAAAAAgggiouTNUXIIuTNUXIqLkEGKoIqLkEXIqtyZq2eRI/KPcvE73QVO25V+I9Wni53Q2p9C0gAB5x5UMNm1sNW59OVN74Suv7+46GDq/xmHPxlP8AlEuIbNxpobIKsKqwKyYHuHB7BLB4OhStZwpqU+mpL2pd7ZxMVey0rk9jsWbeVMUvlJttt63pPjqqpqmap3y6cRlsQRQABBACouQRcxVFyKrcggiouTNUEEEVFyKi5BDZiqLkVu8kU7U785t9Wr8j6zoa1oYbS+6Zn/n/ABzsVVnXlwZx1WsAAOW8o2C87g3USu6FSNTpzX7Mv7k+o2cLVlXlxa2Kpzoz4PKWzpOYq2FVYFWwJpK8oLbJLvJO5Y3vfcbxJdXifMdITlh6u71h3rXzw1Z803QABBBBFRcmYi5FRciouRUEEEVBFRcxEXIqLkVW5BFyKmMXJpLW3ZbxTTNdUU0752EzlGcumpQUYxitUUkfe2rcW6KaI3RGTj1VaUzK56MQAB88TQjVhOlNXhUi4SW2LVmixMxOcJMRMZS8Oyvk+eErVcPU105WT58fmzW9HYoriumKoceuiaKpplgsyYobAq2Bahx4ffj4ok7ljfD33G8SXV4ny/SP8eru9Yd+z88NWfNtwIIAgiouTNUXIIuY5qqRUXJmIIoRUXIK3IqGyKi5iqLkzEEGwyPQzp571Q1feZ2ehcNp3etndT6+0f8AGtiq8qdHi3Z9U5wAAAAOc4ZcGY5QpqVO0MRTX8OT0Kcdfm5dGx8j3s97F7q527nhfs9ZGze8lxuEq4ebpV6cqU464yVnvW1dKOnTVFUZw5lVM0zlLGbKirAtQftw+/HxRJ3LG+Hv+N4kurxPl+kf49Xd6w79n54ao+abgRUXIIuRVbkVFyCCKi5FQQRciouYqi5FRcgi5FQTMQQfXD4eVR5sVvfIt5sYbDXMRXo0R39kflhXcpojOXRYeiqcVCPJy8re0+0w+HpsW4t09n7m5ddc11Zy+h7sAAAAAAMXKGTaGKjmYilCrHkzldx6YvWnuMqa6qdsSxqopqjKYc9W8n2TpcWNWn0Rqtpe9c94xVx4Thbb4/8AjjAc/Ef1IfpGt18jVKOaY+TnAJpqeIummv4kOT+Ua1XyNVo5uox3ycurxRyOkf49Xd6w3rPzw1R8y3UXJmqLkEXJmqLkVajFSlGL1NpPtPSxRFd2mid0zEMapypmWz9W09su1fA7/wAIscZ8fZqazXyR6sp7Zdq+A+D2OM+PsazXyPVlPbLtXwHwfD8Z8fY1mvkj1XT2y7V8CfBsPxnx9jWq+R6rp7Zdq+A+DYfjV4+y61XyPVVPbLtXwJ8Fw/Grx9jWq+SPVVLbLtXwHwXD8avH2Nar5Hqmltn2r4D4Jh+NXj7Gt18j1TS2z7V8CfBMNxq8fZdbr5LRyXRWtN75P8jOnobCxviZ/M/1kxnFXJZdOEYq0UorYtB0rdui3To0RlHJ4VVTVOcrGaAAAAAAAAAAAAx8f8nLq8UaPSX8aru9Yetn54am58u3kXIqtyCCKhsmaidtK0NamIqmmc43mWa/pNTny95ntrd/76vGWPV0cIR6TU58veZNbv8A31eMr1dHCEek1OfL3mTXL/31eMnVUcIR6VU+kl7zJrl/76vGV6qjhCPSqn0kveZNcxH/AKVeMr1VHCD0qp9JP3mSMZiM/qVeMnVUcIdIfcuQAAAAAAAAAAAAAAAAAGPlD5OXV4o0Okv41Xd6w9bPzw09z5dvouRUEEEVBFRcxEXIqLkValSlN2inJnpas3L1WjbjOWNVUUxnL7VMn1kr5t9zTfYbVzovFUU6Wjn+JzYU4i3M5ZsQ50vYQjeOqP0JxQAAAAAAAAAAAAAAAAAxsofJy6vFGh0l/Gq7vWHrY+eGmPlXQRcggilyKi5BVsiouRUXMVb7JlJRpxa1yWc3vPsOi7NNvD0zG+rbLmYiqaq55Ms6LwaTLNJRmpLRnq73rlPlOmrFNu9FdP8AtHnDo4WuZoynsYEdaORTGcxDZl1R+hOKAAAAAAAAAAAAAAAAAFKsM6Mo7VY871uLluqie2GVNWjMS0E4uLaehrQz4uumqiqaat8OnExMZwqYKi5FRcxVFyKi5BFyKgmY3GSsZFxVOTtKOiN+VfE+m6Jx9E24s1zlMbucf3DQxNmc9KGwnNRV5NJLlehHZrrpop0qpyhqxEzOUNBlHE+dndcVaI9PSfHdI4uMTezp+WNkf26di3oU5TvMm0c+pHZH2n1au8dGYeb2Ip4Rtnu3eZfr0aJ5uhPtHLAAAAAAAAAAAAAAAAAABh47B+c9qOia7JdDOZj+j4vxp0bKvV72b2hsnc09SLi7STT2M+YuUVW6tGuMpb8TExnCtzzZK3JmqLkEXMc1QQAAAD7YbDTqu0Vvl81bzZw2Eu4irKiPzPZDC5cpojOW/wAJho0o5sd7fK2fYYTCUYa3oU988XMuXJuTnL7G08wAAAAAAAAAAAAAAAAAAAPnWoxmrSSfitzPG9h7d6MrkZsqa6qZziWBWyTzJW6JfE417oSJ22qu6f79m1Ti/uhhVMBWj8y/TFp/ucy50ZiqP9c/xt9/JsU37c9rHnCS1xa3po0q7ddHzUzH5h6xVE7pUueWcMgROY+kKE5cWEn1Ox70Ya9X8tEz3SwmumN8smlkurLWlDe/gb1rofE1/NEU/mf6zeVWJtxu2s2hkmEdM25vZqidWx0JZo23Jmryj972tXi6p+XY2EIqKskklqS0I7FFFNEaNMZQ1pmZnOUmSAAAAAAAAAAAAAAAAAAAAAAAAAAhxWxdhjNNM74XORJbCxERuTNJQAAAAAAAAAAAAAAAAAAAAAAAAAAAAAAAAAAAAAAAAAAAAAAAAB//2Q==;" vertex="1" parent="13">
                    <mxGeometry x="40" y="35" width="39" height="39" as="geometry"/>
                </mxCell>
                <mxCell id="16" value="DB-container" style="swimlane;" vertex="1" parent="1">
                    <mxGeometry x="380" y="250" width="120" height="160" as="geometry"/>
                </mxCell>
                <mxCell id="17" value="DB" style="image;sketch=0;aspect=fixed;html=1;points=[];align=center;fontSize=12;image=img/lib/mscae/Docker.svg;" vertex="1" parent="16">
                    <mxGeometry x="35" y="74" width="50" height="41" as="geometry"/>
                </mxCell>
                <mxCell id="20" value="" style="shape=image;verticalLabelPosition=bottom;labelBackgroundColor=default;verticalAlign=top;aspect=fixed;imageAspect=0;image=https://logonoid.com/images/postgresql-logo.png;" vertex="1" parent="16">
                    <mxGeometry x="34" y="23.30000000000001" width="51" height="56.7" as="geometry"/>
                </mxCell>
                <mxCell id="22" value="Docker-compose" style="swimlane;" vertex="1" parent="1">
                    <mxGeometry x="130" y="100" width="420" height="420" as="geometry"/>
                </mxCell>
                <mxCell id="25" value="&lt;b&gt;DBの更新&lt;/b&gt;" style="text;html=1;align=center;verticalAlign=middle;resizable=0;points=[];autosize=1;strokeColor=none;fillColor=none;" vertex="1" parent="22">
                    <mxGeometry x="170" y="155" width="80" height="30" as="geometry"/>
                </mxCell>
                <mxCell id="26" value="&lt;b&gt;メッセージの取得&lt;/b&gt;" style="text;html=1;align=center;verticalAlign=middle;resizable=0;points=[];autosize=1;strokeColor=none;fillColor=none;fontSize=10;" vertex="1" parent="22">
                    <mxGeometry x="160" y="265" width="100" height="30" as="geometry"/>
                </mxCell>
                <mxCell id="28" value="データ取得(Websocket)" style="text;html=1;align=center;verticalAlign=middle;resizable=0;points=[];autosize=1;strokeColor=none;fillColor=none;" vertex="1" parent="1">
                    <mxGeometry x="-40" y="220" width="150" height="30" as="geometry"/>
                </mxCell>
                <mxCell id="31" value="月次で語彙ランキング送信" style="text;html=1;align=center;verticalAlign=middle;resizable=0;points=[];autosize=1;strokeColor=none;fillColor=none;" vertex="1" parent="1">
                    <mxGeometry x="-40" y="360" width="170" height="30" as="geometry"/>
                </mxCell>
            </root>
        </mxGraphModel>
    </diagram>
</mxfile>